<svg version="1.1" xmlns="http://www.w3.org/2000/svg" xmlns:xlink="http://www.w3.org/1999/xlink" width="512.000000pt" height="512.000000pt" viewBox="0,0,256,256"><g fill="#ffffff" fill-rule="nonzero" stroke="none" stroke-width="1" stroke-linecap="butt" stroke-linejoin="miter" stroke-miterlimit="10" stroke-dasharray="" stroke-dashoffset="0" font-family="none" font-weight="none" font-size="none" text-anchor="none" style="mix-blend-mode: normal"><g transform="translate(0.01835,0.08122) scale(0.5,0.5)"><g transform="translate(0,512) scale(0.1,-0.1)"><path d="M4315,5113c-280,-39 -517,-248 -592,-523c-28,-103 -23,-282 10,-385c37,-113 90,-198 177,-285c87,-87 172,-139 285,-177c71,-24 95,-27 215,-27c120,0 144,3 215,27c113,38 198,90 285,177c87,87 139,172 177,285c23,70 27,96 27,210c0,114 -4,140 -27,210c-85,257 -301,441 -568,484c-63,11 -145,12 -204,4zM4535,4995c176,-37 340,-166 414,-326c45,-98 61,-164 61,-257c-1,-323 -271,-591 -597,-592c-95,0 -162,15 -252,56c-134,61 -229,156 -292,289c-111,235 -59,498 133,680c143,136 339,191 533,150z"></path><path d="M4346,4838c-9,-12 -16,-39 -16,-60c0,-32 -5,-39 -38,-58c-83,-47 -114,-148 -72,-235c32,-66 80,-95 173,-104c89,-8 117,-27 117,-77c0,-23 -7,-38 -26,-53c-23,-18 -41,-21 -124,-21c-81,0 -100,-3 -113,-18c-44,-48 -7,-92 76,-92h57v-39c0,-45 20,-71 55,-71c31,0 55,35 55,82c0,33 4,39 36,54c50,24 86,83 92,149c4,45 0,61 -22,99c-36,62 -80,86 -170,95c-88,8 -116,27 -116,77c0,23 7,38 26,53c23,18 41,21 124,21c81,0 100,3 113,18c44,48 7,92 -76,92h-57v39c0,23 -7,46 -16,55c-22,23 -60,20 -78,-6z"></path><path d="M570,4645c-60,-19 -124,-75 -158,-139l-27,-51l-3,-1792l-2,-1793h-180c-167,0 -180,-1 -190,-19c-6,-12 -10,-116 -10,-269c0,-274 7,-317 62,-404c40,-63 89,-105 168,-142l65,-31h1510h1510l60,24c83,33 183,133 216,216c24,60 24,63 27,487l3,427l617,3c715,4 674,-1 778,102c104,104 98,61 102,788c3,620 2,628 -18,648c-19,19 -32,20 -275,20h-255v40c0,87 -20,142 -69,191c-36,37 -57,49 -99,58c-36,7 -232,11 -597,11h-544l-87,106c-129,155 -111,149 -445,149h-276l-48,-30c-35,-21 -56,-45 -74,-80l-26,-49v-881c0,-484 4,-897 8,-918c5,-24 24,-56 49,-83c68,-74 68,-74 645,-74h504l-3,-423l-3,-422l-27,-50c-53,-101 -134,-150 -248,-150c-86,0 -131,19 -192,80c-71,71 -72,80 -78,376c-4,205 -8,270 -19,282c-12,16 -114,17 -1230,19l-1216,3l-3,1771l-2,1771l23,43c16,30 37,51 67,67l43,23h1034h1033v-393c0,-369 1,-395 18,-410c17,-15 60,-17 410,-17h392v-119c0,-113 1,-121 22,-135c30,-21 44,-20 68,4c18,18 20,33 20,172v153l-428,427l-427,428l-1075,-1c-890,0 -1083,-3 -1120,-14zM2983,3161c14,-5 71,-64 126,-130l102,-121h575c641,0 632,1 659,-64c13,-30 15,-142 15,-724c0,-748 -1,-728 56,-814l24,-38h-1015c-869,0 -1021,2 -1051,15c-64,27 -64,22 -64,615v530h719c641,0 721,2 735,16c21,20 20,53 -1,76c-15,17 -51,18 -735,18h-718v268c0,234 2,271 18,302c9,19 28,40 42,47c30,15 475,18 513,4z"></path><path d="M4101,2524c-24,-31 -25,-35 -10,-68c34,-75 146,-37 130,44c-10,54 -85,68 -120,24z"></path><path d="M840,3470c-25,-25 -26,-52 -2,-73c17,-15 79,-17 680,-17h662l15,24c18,27 7,69 -20,80c-9,3 -309,6 -666,6c-636,0 -649,0 -669,-20z"></path><path d="M3515,3305c-30,-30 -31,-54 -4,-89c39,-50 119,-24 119,39c0,24 -7,39 -26,54c-35,27 -59,26 -89,-4z"></path><path d="M840,2820c-25,-25 -26,-52 -2,-73c17,-15 74,-17 620,-17h602l14,23c20,29 10,66 -21,78c-14,5 -276,9 -609,9c-571,0 -584,0 -604,-20z"></path><path d="M837,2162c-22,-25 -21,-48 3,-72c18,-18 33,-20 148,-20c140,0 172,10 172,55c0,49 -20,55 -169,55c-121,0 -140,-2 -154,-18z"></path><path d="M1446,2158c-21,-30 -20,-44 4,-68c19,-19 33,-20 310,-20c277,0 291,1 310,20c24,24 25,38 4,68c-15,22 -16,22 -314,22c-298,0 -299,0 -314,-22z"></path><path d="M840,1510c-25,-25 -26,-52 -2,-73c17,-15 74,-17 620,-17h602l15,24c19,28 9,58 -25,76c-12,6 -224,10 -604,10c-573,0 -586,0 -606,-20z"></path></g></g></g></svg>