<svg version="1.1" xmlns="http://www.w3.org/2000/svg" xmlns:xlink="http://www.w3.org/1999/xlink" width="512.000000pt" height="512.000000pt" viewBox="0,0,256,256"><g fill="#ffffff" fill-rule="nonzero" stroke="none" stroke-width="1" stroke-linecap="butt" stroke-linejoin="miter" stroke-miterlimit="10" stroke-dasharray="" stroke-dashoffset="0" font-family="none" font-weight="none" font-size="none" text-anchor="none" style="mix-blend-mode: normal"><g transform="translate(0.02283,-0.02709) scale(0.5,0.5)"><g transform="translate(0,512) scale(0.1,-0.1)"><path d="M3790,4266c-272,-117 -1075,-464 -1785,-770c-836,-361 -1300,-566 -1317,-583c-54,-52 -62,-142 -17,-204c28,-39 19,-35 795,-369l612,-262l277,-647c153,-355 288,-667 301,-693c13,-25 37,-56 54,-68c61,-44 152,-36 203,18c17,18 294,648 798,1816c722,1675 771,1791 766,1833c-8,78 -66,133 -144,140c-44,3 -85,-12 -543,-211zM2890,3115l-726,-726l-442,191c-244,104 -460,197 -480,206l-37,15l230,100c1292,558 2171,938 2175,938c3,1 -321,-325 -720,-724zM3812,3547c-443,-1034 -1009,-2334 -1013,-2329c-4,4 -98,218 -209,476l-201,470l723,723c398,398 724,723 725,723c1,0 -10,-28 -25,-63z"></path></g></g></g></svg>