<svg version="1.1" xmlns="http://www.w3.org/2000/svg" xmlns:xlink="http://www.w3.org/1999/xlink" width="512.000000pt" height="512.000000pt" viewBox="0,0,256,256"><g fill="#ffffff" fill-rule="nonzero" stroke="none" stroke-width="1" stroke-linecap="butt" stroke-linejoin="miter" stroke-miterlimit="10" stroke-dasharray="" stroke-dashoffset="0" font-family="none" font-weight="none" font-size="none" text-anchor="none" style="mix-blend-mode: normal"><g transform="translate(0.05706,0.22882) scale(0.5,0.5)"><g transform="translate(0,512) scale(0.1,-0.1)"><path d="M1140,4873c-38,-13 -108,-78 -433,-402c-214,-212 -407,-407 -429,-434c-27,-31 -42,-60 -45,-86c-13,-93 -25,-78 433,-537c301,-301 438,-431 467,-445c55,-25 149,-25 202,0c108,50 159,172 123,295c-9,33 -48,78 -197,230l-186,189l110,-7c490,-28 915,-350 1069,-808c63,-186 59,-110 65,-1333c7,-1264 -1,-1156 87,-1234c98,-86 236,-80 324,15c22,24 46,56 53,72c9,20 13,296 18,1147c5,1095 6,1122 26,1205c133,538 572,907 1113,937l105,6l-186,-189c-149,-152 -188,-197 -197,-230c-36,-123 15,-245 123,-295c53,-25 147,-25 201,0c30,13 166,143 458,435c229,229 423,431 432,448c11,21 15,48 12,84c-4,43 -11,60 -45,101c-23,26 -216,222 -430,434c-344,343 -394,388 -437,402c-128,43 -255,-6 -307,-118c-23,-49 -25,-142 -4,-193c10,-23 83,-104 198,-219l182,-183h-72c-100,0 -283,-25 -396,-55c-302,-78 -606,-261 -812,-488c-56,-62 -162,-201 -196,-257c-8,-13 -10,-13 -19,1c-32,53 -132,185 -189,248c-206,232 -511,417 -818,496c-113,30 -296,55 -396,55h-72l182,183c115,115 188,196 198,219c21,51 19,143 -4,194c-23,49 -88,107 -140,122c-52,16 -116,14 -171,-5z"></path></g></g></g></svg>