<svg version="1.1" xmlns="http://www.w3.org/2000/svg" xmlns:xlink="http://www.w3.org/1999/xlink" width="512.000000pt" height="512.000000pt" viewBox="0,0,256,256"><g fill="#ffffff" fill-rule="nonzero" stroke="none" stroke-width="1" stroke-linecap="butt" stroke-linejoin="miter" stroke-miterlimit="10" stroke-dasharray="" stroke-dashoffset="0" font-family="none" font-weight="none" font-size="none" text-anchor="none" style="mix-blend-mode: normal"><g transform="translate(0,-0.01453) scale(0.5,0.5)"><g transform="translate(0,512) scale(0.1,-0.1)"><path d="M3965,5101c-16,-10 -146,-135 -287,-277c-274,-277 -284,-290 -258,-359c12,-31 457,-487 524,-536c75,-55 172,-27 195,57c17,63 1,89 -161,251l-153,153h221c121,0 247,-5 279,-11c104,-19 182,-69 238,-152c67,-98 67,-102 67,-684c0,-567 -1,-561 54,-597c14,-9 45,-16 72,-16c39,0 51,5 80,34l34,34v554c0,615 0,610 -67,748c-50,103 -159,211 -264,263c-118,58 -178,67 -464,67h-250l153,153c105,105 155,163 162,185c28,101 -87,189 -175,133z"></path><path d="M478,4846c-72,-30 -128,-74 -167,-132c-65,-98 -62,-46 -59,-1075l3,-934l27,-55c35,-71 107,-143 178,-178l55,-27h928h929l29,32c51,58 51,108 0,166l-29,32l-899,5c-716,4 -903,8 -921,18c-13,7 -32,28 -42,45c-19,31 -20,55 -20,595v562l1218,-2l1217,-3l5,-331c5,-359 4,-350 63,-381c60,-31 139,0 167,66c7,19 10,218 8,686l-3,660l-27,57c-35,76 -104,148 -175,184l-58,29l-1185,2l-1185,3zM2859,4616c61,-32 66,-51 66,-271v-200l-1217,-3l-1218,-2v197c0,218 4,233 59,270l34,23h1124c962,0 1128,-2 1152,-14z"></path><path d="M3218,2919c-84,-9 -125,-22 -210,-66c-136,-71 -239,-191 -290,-339c-91,-262 5,-548 234,-701c109,-73 196,-98 338,-98c144,0 226,23 334,96c95,63 156,133 207,234c120,243 79,504 -111,696c-137,139 -305,198 -502,178zM3442,2648c179,-82 260,-300 179,-483c-30,-68 -111,-148 -184,-181c-53,-24 -75,-28 -147,-28c-113,0 -187,32 -264,115c-70,75 -96,143 -96,247c1,162 99,298 253,348c67,22 190,13 259,-18z"></path><path d="M284,2156l-34,-34v-554c0,-615 0,-610 67,-748c50,-103 159,-211 264,-263c118,-58 178,-67 464,-67h250l-153,-153c-105,-105 -155,-163 -162,-185c-27,-97 79,-185 168,-138c15,8 145,133 289,278c280,281 289,294 263,363c-12,31 -457,487 -524,536c-75,55 -172,27 -195,-57c-17,-63 -1,-89 161,-251l153,-153h-221c-121,0 -247,5 -279,11c-139,25 -245,119 -286,250c-18,56 -19,98 -19,585c0,568 1,562 -54,598c-14,9 -45,16 -72,16c-39,0 -51,-5 -80,-34z"></path><path d="M2650,1444c-128,-34 -249,-115 -325,-217c-58,-76 -77,-113 -104,-202c-27,-87 -39,-329 -22,-449c20,-139 91,-239 210,-295l56,-26l812,-3c797,-2 812,-2 866,18c72,27 129,69 172,127c62,86 70,124 70,343c0,223 -7,265 -68,389c-74,154 -223,273 -392,316c-87,22 -1192,21 -1275,-1zM3927,1186c74,-34 153,-112 185,-183c20,-43 23,-69 26,-233c3,-160 1,-189 -13,-217c-36,-66 -2,-64 -850,-61l-767,3l-35,38l-35,38l4,187c3,180 4,189 31,247c46,99 124,166 232,201c31,10 167,13 600,11l560,-2z"></path></g></g></g></svg>