<svg version="1.1" xmlns="http://www.w3.org/2000/svg" xmlns:xlink="http://www.w3.org/1999/xlink" width="512.000000pt" height="512.000000pt" viewBox="0,0,256,256"><g fill="#006ac2" fill-rule="nonzero" stroke="none" stroke-width="1" stroke-linecap="butt" stroke-linejoin="miter" stroke-miterlimit="10" stroke-dasharray="" stroke-dashoffset="0" font-family="none" font-weight="none" font-size="none" text-anchor="none" style="mix-blend-mode: normal"><g transform="translate(0,-0.07283) scale(0.5,0.5)"><g transform="translate(0,512) scale(0.1,-0.1)"><path d="M2420,5114c-322,-40 -591,-171 -815,-398c-199,-201 -313,-415 -372,-696c-24,-118 -24,-382 0,-500c59,-281 174,-496 372,-696c201,-203 421,-322 705,-381c117,-24 380,-24 502,0c270,54 494,174 694,372c202,199 322,421 381,705c24,118 24,382 0,500c-39,185 -110,356 -212,510c-63,95 -258,291 -351,352c-161,107 -335,180 -506,213c-81,16 -328,28 -398,19zM2800,4792c198,-52 365,-146 501,-281c135,-135 226,-297 282,-501c29,-109 29,-371 0,-480c-56,-204 -147,-366 -282,-501c-135,-135 -297,-226 -501,-282c-109,-29 -371,-29 -480,0c-204,56 -366,147 -501,282c-386,387 -411,1000 -57,1421c153,182 404,323 638,359c98,15 311,6 400,-17z"></path><path d="M2023,2104c-560,-68 -1065,-385 -1390,-874c-191,-286 -300,-624 -319,-985c-6,-111 -5,-124 15,-163c14,-28 34,-48 61,-62c39,-20 54,-20 2170,-20c2116,0 2131,0 2170,20c27,14 47,34 61,62c20,39 21,52 15,163c-26,493 -214,925 -556,1279c-324,335 -742,539 -1199,586c-151,15 -889,11 -1028,-6zM3035,1810c663,-76 1219,-543 1404,-1181c30,-101 61,-258 61,-305v-24h-1940h-1940v29c0,54 41,242 74,345c109,332 317,618 603,831c102,76 328,192 458,234c99,33 216,58 322,70c102,12 854,12 958,1z"></path></g></g></g></svg>